<svg width="410" height="404" viewBox="0 0 410 404" fill="none" xmlns="http://www.w3.org/2000/svg">
<path d="M299.092 286.321C299.092 310.683 318.837 330.428 343.199 330.428C367.562 330.428 387.307 310.683 387.307 286.321C387.307 261.958 343.199 212.808 343.199 212.808C343.199 212.808 299.092 261.958 299.092 286.321Z" fill="#D70A0E"/>
<path d="M321.88 318.666C346.243 318.666 365.988 298.921 365.988 274.559C365.988 259.886 349.989 236.225 337.262 219.722C340.859 215.417 343.199 212.809 343.199 212.809C343.199 212.809 387.307 261.959 387.307 286.321C387.307 310.682 367.562 330.428 343.199 330.428C331.042 330.428 320.034 325.509 312.056 317.555C315.217 318.274 318.502 318.666 321.88 318.666Z" fill="#920003"/>
<path d="M343.199 207.295C344.765 207.295 346.257 207.961 347.303 209.126C351.962 214.317 392.82 260.59 392.82 286.321C392.82 313.682 370.56 335.941 343.199 335.941C315.838 335.941 293.579 313.682 293.579 286.321C293.579 260.59 334.437 214.317 339.096 209.126C340.142 207.961 341.634 207.295 343.199 207.295ZM343.199 324.915C364.479 324.915 381.794 307.602 381.794 286.321C381.794 269.916 356.855 237.235 343.199 221.197C329.544 237.235 304.605 269.916 304.605 286.321C304.605 307.602 321.919 324.915 343.199 324.915Z" fill="black"/>
<path d="M335.049 320.275C337.721 320.91 340.464 321.237 343.197 321.238H343.199C346.243 321.238 348.711 318.771 348.713 315.727C348.714 312.682 346.247 310.213 343.202 310.212C339.585 310.21 335.939 309.377 332.659 307.802C329.415 306.246 326.566 303.993 324.316 301.271C322.717 299.255 321.422 296.979 320.512 294.53C319.245 291.12 318.75 287.413 319.079 283.811C319.357 280.779 317.124 278.096 314.092 277.818C311.06 277.541 308.377 279.773 308.099 282.804L308.098 282.806C307.619 288.041 308.338 293.423 310.176 298.371C313.415 307.089 320.046 314.304 328.368 318.165C330.468 319.139 332.704 319.842 335.049 320.275Z" fill="black"/>
<path d="M40.9956 172.12L83.4197 157.433L219.194 90.1453L230.157 78.392L226.003 74.2386C220.262 68.4976 220.262 59.1832 226.003 53.4422L228.084 51.3621C233.825 45.621 243.132 45.621 248.873 51.3621L327.884 130.373C333.625 136.114 333.625 145.428 327.884 151.169L325.804 153.249C320.063 158.99 310.756 158.99 305.015 153.249L300.854 149.088L207.133 338.258C199.348 357.93 173.957 363.186 158.997 348.226L31.0191 220.248C16.0601 205.289 21.3237 179.905 40.9956 172.12Z" fill="#E0DDDF"/>
<path fill-rule="evenodd" clip-rule="evenodd" d="M20.5964 195.925C20.5964 195.925 45.1204 154.772 81.4116 154.772C117.703 154.772 183.038 183.902 223.831 184.158C264.621 184.418 290.143 169.202 290.143 169.202L201.444 352.219C201.444 352.219 181.543 364.858 163.703 352.219C145.863 339.58 56.0105 259.198 20.5964 195.925Z" fill="#D70A0E"/>
<path d="M230.449 78.4363L215.051 86.0653L246.132 116.579L261.673 131.836L277.213 147.093L260.102 180.287C266.27 179.54 290.859 169.655 290.859 169.655L293.517 164.53L301.145 149.132L305.306 153.293C311.048 159.034 320.354 159.034 326.095 153.293L328.176 151.213C333.917 145.472 333.917 136.157 328.176 130.416L305.306 107.547L274.056 123.65L259.604 107.547L290.859 93.1001L249.165 51.4064C243.423 45.6653 234.117 45.6653 228.375 51.4064L226.295 53.4865C220.554 59.2275 220.554 68.5419 226.295 74.2829L230.449 78.4363Z" fill="#C1BCBF"/>
<path d="M260.141 180.169L187.882 319.769C180.922 337.358 159.892 343.408 144.822 333.803L159.289 348.27C174.249 363.229 199.64 357.973 207.424 338.301L246.029 260.226L290.143 169.202C290.143 169.202 279.18 175.738 260.141 180.169Z" fill="#A0181A"/>
<path d="M160.678 172.097C183.435 178.406 205.982 184.046 223.831 184.158C259.388 184.385 283.344 172.851 288.905 169.889C291.101 166.434 291.632 163.951 291.632 163.951C292.846 159.797 291.732 157.599 245.019 157.599C223.025 157.599 192.187 164.314 160.678 172.097Z" fill="#920003"/>
<path d="M271.599 157.984C292.136 158.782 292.551 160.806 291.632 163.951C291.632 163.951 291.101 166.434 288.905 169.889C287.694 170.533 285.613 171.584 282.73 172.832C278.63 174.399 273.61 176.265 269.22 177.744C266.449 178.583 263.426 179.404 260.165 180.164L271.599 157.984Z" fill="#69080A"/>
<path d="M118.302 222.584C106.934 222.584 97.7179 213.368 97.7179 202C97.7179 190.632 106.934 181.416 118.302 181.416C129.67 181.416 138.885 190.632 138.885 202C138.885 213.368 129.67 222.584 118.302 222.584Z" fill="#ECECEC" fill-opacity="0.44"/>
<path d="M161.2 331.898C156.328 331.898 152.379 327.949 152.379 323.077C152.379 318.205 156.328 314.255 161.2 314.255C166.072 314.255 170.021 318.205 170.021 323.077C170.021 327.949 166.072 331.898 161.2 331.898Z" fill="#ECECEC" fill-opacity="0.44"/>
<path d="M49.8291 211.338C42.7243 211.338 36.9646 205.579 36.9646 198.474C36.9646 191.369 42.7243 185.609 49.8291 185.609C56.934 185.609 62.6936 191.369 62.6936 198.474C62.6936 205.579 56.934 211.338 49.8291 211.338Z" fill="#ECECEC" fill-opacity="0.44"/>
<path d="M232.535 214.497C229.084 214.497 226.286 211.7 226.286 208.249C226.286 204.798 229.084 202 232.535 202C235.986 202 238.783 204.798 238.783 208.249C238.783 211.7 235.986 214.497 232.535 214.497Z" fill="#ECECEC" fill-opacity="0.44"/>
<path d="M72.2501 237.067C66.9722 237.067 62.6936 232.789 62.6936 227.511C62.6936 222.233 66.9722 217.954 72.2501 217.954C77.528 217.954 81.8066 222.233 81.8066 227.511C81.8066 232.789 77.528 237.067 72.2501 237.067Z" fill="#ECECEC" fill-opacity="0.44"/>
<path d="M103.11 263.182C99.5035 263.182 96.5794 260.258 96.5794 256.651C96.5794 253.044 99.5035 250.12 103.11 250.12C106.718 250.12 109.642 253.044 109.642 256.651C109.642 260.258 106.718 263.182 103.11 263.182Z" fill="#ECECEC" fill-opacity="0.44"/>
<path d="M198.691 271.618C192.754 271.618 187.942 266.805 187.942 260.869C187.942 254.932 192.754 250.12 198.691 250.12C204.628 250.12 209.44 254.932 209.44 260.869C209.44 266.805 204.628 271.618 198.691 271.618Z" fill="#ECECEC" fill-opacity="0.44"/>
<path d="M190.604 289.262C186.138 289.262 182.518 285.641 182.518 281.175C182.518 276.709 186.138 273.089 190.604 273.089C195.07 273.089 198.691 276.709 198.691 281.175C198.691 285.641 195.07 289.262 190.604 289.262Z" fill="#ECECEC" fill-opacity="0.44"/>
<path d="M39.2385 167.583L39.2556 167.574L113.092 130.977C115.572 129.749 118.58 130.763 119.81 133.244C121.039 135.725 120.024 138.733 117.544 139.962L43.5112 176.656L39.2385 167.583ZM39.2385 167.583L39.2207 167.59M39.2385 167.583L39.2207 167.59M39.2207 167.59C28.5188 171.909 20.7435 181.212 18.4005 192.524C16.0412 203.91 19.5415 215.614 27.7642 223.837L155.743 351.815C162.278 358.351 171.014 361.903 180.04 361.904C182.374 361.904 184.726 361.666 187.066 361.181C198.376 358.838 207.679 351.065 211.997 340.365L212.004 340.348L212.013 340.33L302.265 158.163L302.547 157.593L303.035 158.003C306.58 160.985 311.012 162.613 315.7 162.613C320.965 162.613 325.914 160.563 329.639 156.838L331.719 154.758C335.443 151.034 337.493 146.083 337.493 140.815C337.493 135.546 335.443 130.596 331.718 126.871L332.072 126.518L331.718 126.871L252.708 47.8603C245.021 40.1755 232.515 40.1749 224.829 47.8602L222.748 49.941C215.474 57.2151 215.088 68.8062 221.58 76.5451L221.988 77.0322L221.419 77.3145L143.001 116.166C143.001 116.166 143.001 116.166 143.001 116.166C140.52 117.396 139.505 120.403 140.734 122.884C141.61 124.649 143.385 125.673 145.232 125.673C145.978 125.673 146.737 125.505 147.453 125.151L147.675 125.599L147.453 125.151L229.126 84.6862L229.448 84.5269L229.702 84.7807L294.8 149.879L295.054 150.133L294.894 150.454L202.932 336.075C202.903 336.132 202.876 336.19 202.85 336.249C202.819 336.318 202.789 336.387 202.762 336.457C199.685 344.23 193.219 349.667 185.032 351.363C176.842 353.06 168.746 350.638 162.833 344.725L34.8543 216.748C28.9422 210.837 26.5222 202.744 28.2179 194.558C29.915 186.371 35.3529 179.903 43.1288 176.826L43.1295 176.826M39.2207 167.59L43.1295 176.826M43.1295 176.826C43.2577 176.775 43.3843 176.719 43.5101 176.657L43.1295 176.826ZM324.629 147.668L324.629 147.668L322.548 149.748C322.548 149.748 322.548 149.748 322.548 149.748C320.719 151.577 318.285 152.585 315.699 152.585C313.113 152.585 310.679 151.578 308.85 149.749L234.05 74.947L234.049 74.947L234.043 74.9406C234.03 74.9264 234.016 74.9123 234.001 74.8978C233.982 74.8782 233.961 74.858 233.938 74.8359L233.935 74.8328L229.838 70.7361L229.838 70.7361C226.06 66.9572 226.06 60.8086 229.839 57.0298L231.919 54.9497L231.919 54.9496C233.807 53.0618 236.289 52.117 238.768 52.117C241.248 52.117 243.728 53.0611 245.618 54.9503L245.618 54.9503L324.628 133.961C326.457 135.79 327.466 138.225 327.466 140.814C327.466 143.403 326.457 145.839 324.629 147.668Z" fill="black" stroke="black"/>
<path d="M153.448 253.055L144.869 244.471C142.716 242.317 142.717 238.826 144.871 236.675C147.026 234.521 150.517 234.523 152.668 236.677L161.245 245.259L170.083 236.42L153.19 219.522C151.037 217.369 151.038 213.877 153.191 211.726C155.346 209.572 158.837 209.574 160.989 211.727L177.879 228.623L186.717 219.785L178.14 211.208C175.987 209.055 175.987 205.565 178.14 203.412C180.293 201.259 183.783 201.258 185.937 203.412L194.514 211.988L203.352 203.15L186.455 186.259C184.302 184.107 184.301 180.616 186.454 178.463C188.607 176.309 192.097 176.309 194.251 178.461L211.148 195.353L219.982 186.519L211.403 177.935C209.249 175.781 209.251 172.29 211.405 170.139C213.558 167.985 217.049 167.986 219.201 170.141L227.778 178.723L236.617 169.884L219.724 152.986C217.571 150.833 217.572 147.342 219.725 145.19C221.88 143.036 225.371 143.038 227.523 145.191L244.413 162.087L255.069 151.431C257.223 149.278 260.714 149.278 262.866 151.431C265.019 153.585 265.019 157.076 262.866 159.228L131.874 290.22C130.798 291.296 129.386 291.835 127.976 291.835C126.564 291.835 125.153 291.296 124.077 290.22C121.923 288.066 121.923 284.575 124.077 282.423L136.814 269.687L119.917 252.796C117.764 250.643 117.763 247.153 119.916 244.999C122.069 242.845 125.559 242.845 127.713 244.998L144.61 261.889L153.448 253.055Z" fill="black"/>
<path d="M82.4068 186.234C81.5347 186.739 80.5839 186.981 79.6426 186.981C77.7424 186.981 75.8928 185.997 74.8702 184.235C73.3414 181.602 74.2361 178.228 76.8689 176.699C78.6788 175.648 87.6651 170.789 89.4894 169.764C92.1427 168.273 95.5054 169.215 96.9966 171.871C98.4878 174.526 97.5445 177.887 94.8898 179.378C93.1113 180.378 84.1709 185.209 82.4068 186.234Z" fill="black"/>
<path d="M212.313 107.208C215.012 105.8 218.343 106.846 219.752 109.546C221.16 112.246 220.114 115.577 217.414 116.985C203.812 124.081 189.995 131.049 176.633 137.788C156.74 147.819 136.17 158.192 115.921 169.189C115.084 169.643 114.183 169.858 113.295 169.858C111.339 169.858 109.444 168.815 108.444 166.975C106.991 164.299 107.983 160.952 110.659 159.499C131.056 148.424 151.702 138.012 171.668 127.942C184.997 121.221 198.779 114.27 212.313 107.208Z" fill="black"/>
</svg>
