<svg width="470" height="408" viewBox="0 0 470 408" fill="none" xmlns="http://www.w3.org/2000/svg">
<path d="M352.5 310.862C352.5 341.737 377.158 366.76 407.581 366.76C438.004 366.76 462.661 341.737 462.661 310.862C462.661 279.987 407.581 217.698 407.581 217.698C407.581 217.698 352.5 279.987 352.5 310.862Z" fill="#7C3AED"/>
<path d="M380.958 351.854C411.381 351.854 436.039 326.831 436.039 295.956C436.039 277.36 416.06 247.374 400.166 226.459C404.659 221.004 407.58 217.699 407.58 217.699C407.58 217.699 462.661 279.988 462.661 310.862C462.661 341.736 438.004 366.76 407.581 366.76C392.398 366.76 378.653 360.527 368.69 350.446C372.636 351.357 376.739 351.854 380.958 351.854Z" fill="#4338CA"/>
<path d="M407.581 210.711C409.536 210.711 411.399 211.555 412.705 213.031C418.523 219.61 469.546 278.252 469.546 310.862C469.546 345.537 441.749 373.747 407.581 373.747C373.413 373.747 345.615 345.537 345.615 310.862C345.615 278.253 396.639 219.61 402.456 213.031C403.763 211.554 405.626 210.711 407.581 210.711ZM407.581 359.773C434.155 359.773 455.776 337.832 455.776 310.862C455.776 290.072 424.633 248.654 407.581 228.328C390.528 248.654 359.385 290.072 359.385 310.862C359.385 337.832 381.006 359.773 407.581 359.773Z" fill="black"/>
<path d="M393.684 350.614C396.761 351.575 399.951 352.215 403.16 352.504L403.163 352.505C406.737 352.826 409.873 350.445 410.167 347.187C410.461 343.928 407.801 341.025 404.226 340.702C399.979 340.318 395.777 339.043 392.077 337.011C388.417 335.003 385.288 332.291 382.908 329.14C381.223 326.813 379.922 324.241 379.089 321.523C377.928 317.739 377.703 313.719 378.436 309.898C379.053 306.682 376.689 303.574 373.155 302.957C369.622 302.341 366.257 304.446 365.638 307.662L365.638 307.664C364.571 313.217 364.898 319.054 366.581 324.544C369.547 334.218 376.64 342.64 386.041 347.651C388.413 348.915 390.972 349.903 393.684 350.614Z" fill="black"/>
<path d="M30.1947 166.132L83.1731 147.519L252.726 62.2435L266.416 47.3483L261.229 42.0846C254.06 34.8088 254.06 23.0045 261.229 15.7287L263.827 13.0925C270.996 5.81675 282.618 5.81675 289.788 13.0925L388.456 113.225C395.625 120.5 395.625 132.305 388.456 139.581L385.858 142.217C378.689 149.492 367.067 149.492 359.897 142.217L354.7 136.943L237.663 376.683C227.942 401.614 196.234 408.275 177.552 389.316L17.7362 227.126C-0.944314 208.168 5.62875 175.998 30.1947 166.132Z" fill="#E0DDDF"/>
<path fill-rule="evenodd" clip-rule="evenodd" d="M4.72052 196.301C4.72052 196.301 35.3456 144.146 80.6653 144.146C125.985 144.146 207.575 181.064 258.516 181.389C309.453 181.718 341.325 162.435 341.325 162.435L230.56 394.376C230.56 394.376 205.707 410.395 183.429 394.376C161.151 378.358 48.945 276.488 4.72052 196.301Z" fill="#7C3AED"/>
<path d="M266.78 47.4045L247.552 57.0728L286.365 95.7439L305.772 115.079L325.178 134.415L303.81 176.483C311.512 175.536 342.219 163.009 342.219 163.009L345.538 156.513L355.064 136.999L360.26 142.272C367.43 149.548 379.052 149.548 386.222 142.272L388.819 139.636C395.989 132.36 395.989 120.556 388.819 113.28L360.26 84.2968L321.236 104.705L303.188 84.2968L342.219 65.9883L290.153 13.1487C282.982 5.87289 271.36 5.87289 264.191 13.1487L261.593 15.7849C254.424 23.0606 254.424 34.865 261.593 42.1408L266.78 47.4045Z" fill="#C1BCBF"/>
<path d="M303.86 176.334L213.623 353.252C204.932 375.543 178.67 383.21 159.851 371.037L177.917 389.371C196.598 408.33 228.306 401.669 238.028 376.738L286.236 277.792L341.325 162.435C341.325 162.435 327.635 170.718 303.86 176.334Z" fill="#4338CA"/>
<path d="M179.651 166.103C208.07 174.099 236.227 181.246 258.516 181.389C302.919 181.676 332.835 167.059 339.779 163.304C342.522 158.927 343.185 155.78 343.185 155.78C344.7 150.516 343.31 147.73 284.975 147.73C257.51 147.73 219 156.24 179.651 166.103Z" fill="#6D28D9"/>
<path d="M318.167 148.218C343.813 149.228 344.332 151.793 343.185 155.78C343.185 155.78 342.522 158.926 339.779 163.304C338.267 164.122 335.668 165.453 332.067 167.034C326.948 169.02 320.678 171.386 315.197 173.26C311.736 174.323 307.961 175.364 303.89 176.326L318.167 148.218Z" fill="#3730A3"/>
<path d="M126.733 230.086C112.537 230.086 101.028 218.407 101.028 204C101.028 189.593 112.537 177.914 126.733 177.914C140.929 177.914 152.437 189.593 152.437 204C152.437 218.407 140.929 230.086 126.733 230.086Z" fill="#ECECEC" fill-opacity="0.44"/>
<path d="M180.304 368.623C174.22 368.623 169.288 363.618 169.288 357.444C169.288 351.27 174.22 346.264 180.304 346.264C186.388 346.264 191.319 351.27 191.319 357.444C191.319 363.618 186.388 368.623 180.304 368.623Z" fill="#ECECEC" fill-opacity="0.44"/>
<path d="M41.2257 215.835C32.3533 215.835 25.1608 208.535 25.1608 199.531C25.1608 190.527 32.3533 183.228 41.2257 183.228C50.0981 183.228 57.2906 190.527 57.2906 199.531C57.2906 208.535 50.0981 215.835 41.2257 215.835Z" fill="#ECECEC" fill-opacity="0.44"/>
<path d="M269.385 219.838C265.075 219.838 261.582 216.293 261.582 211.919C261.582 207.545 265.075 204 269.385 204C273.694 204 277.188 207.545 277.188 211.919C277.188 216.293 273.694 219.838 269.385 219.838Z" fill="#ECECEC" fill-opacity="0.44"/>
<path d="M69.2246 248.442C62.6336 248.442 57.2905 243.019 57.2905 236.33C57.2905 229.642 62.6336 224.219 69.2246 224.219C75.8155 224.219 81.1586 229.642 81.1586 236.33C81.1586 243.019 75.8155 248.442 69.2246 248.442Z" fill="#ECECEC" fill-opacity="0.44"/>
<path d="M107.762 281.537C103.258 281.537 99.6065 277.832 99.6065 273.26C99.6065 268.689 103.258 264.983 107.762 264.983C112.267 264.983 115.918 268.689 115.918 273.26C115.918 277.832 112.267 281.537 107.762 281.537Z" fill="#ECECEC" fill-opacity="0.44"/>
<path d="M227.121 292.229C219.708 292.229 213.698 286.13 213.698 278.606C213.698 271.082 219.708 264.983 227.121 264.983C234.535 264.983 240.545 271.082 240.545 278.606C240.545 286.13 234.535 292.229 227.121 292.229Z" fill="#ECECEC" fill-opacity="0.44"/>
<path d="M217.023 314.589C211.446 314.589 206.925 310.001 206.925 304.341C206.925 298.681 211.446 294.093 217.023 294.093C222.6 294.093 227.121 298.681 227.121 304.341C227.121 310.001 222.6 314.589 217.023 314.589Z" fill="#ECECEC" fill-opacity="0.44"/>
<path d="M27.9693 160.25L27.952 160.259L27.9341 160.267C14.5328 165.755 4.7923 177.58 1.85684 191.962C-1.09894 206.439 3.28711 221.32 13.5862 231.772L173.403 393.962C181.588 402.269 192.529 406.783 203.831 406.784C206.753 406.784 209.698 406.482 212.629 405.866C226.791 402.888 238.443 393.01 243.853 379.406L243.86 379.389L243.868 379.372L356.573 148.507L356.856 147.927L357.346 148.346C361.797 152.144 367.359 154.217 373.24 154.217C379.846 154.217 386.057 151.607 390.732 146.862L393.33 144.226C398.005 139.481 400.58 133.173 400.58 126.458C400.58 119.744 398.004 113.435 393.329 108.69L393.585 108.437L393.329 108.69L294.663 8.55749C285.015 -1.23039 269.323 -1.23117 259.676 8.55742L257.078 11.1945C247.946 20.4629 247.46 35.2348 255.612 45.0963L256.011 45.5798L255.451 45.8616L157.524 95.0991C154.366 96.688 153.067 100.581 154.636 103.796C155.753 106.082 158.015 107.402 160.363 107.402C161.312 107.402 162.278 107.186 163.189 106.728L163.393 107.134L163.189 106.728L265.181 55.4462L265.506 55.2827L265.762 55.542L347.055 138.043L347.303 138.295L347.148 138.613L232.307 373.855C232.307 373.855 232.307 373.855 232.306 373.856C232.228 374.018 232.155 374.183 232.09 374.35C228.265 384.157 220.226 391.019 210.041 393.161C199.852 395.303 189.782 392.245 182.428 384.782L22.6109 222.594C15.2589 215.133 12.2518 204.924 14.3597 194.598C16.4694 184.269 23.229 176.106 32.9021 172.222L32.9027 172.221C33.0663 172.156 33.2274 172.083 33.3874 172.003C33.3877 172.003 33.3882 172.003 33.3885 172.003L125.839 125.499C128.997 123.91 130.297 120.017 128.727 116.802C127.158 113.591 123.328 112.284 120.174 113.87L27.9693 160.25ZM384.305 135.046L384.305 135.046L381.707 137.682C381.706 137.682 381.706 137.683 381.706 137.683C379.447 139.976 376.438 141.242 373.239 141.242C370.04 141.242 367.032 139.977 364.771 137.683L271.362 42.8852L271.356 42.8788C271.314 42.835 271.271 42.7921 271.223 42.7436L271.219 42.7404L266.103 37.5487L266.459 37.1977L266.103 37.5486C261.437 32.8124 261.437 25.1087 266.104 20.3725L268.701 17.7363L269.057 18.0872L268.701 17.7362C271.035 15.369 274.103 14.183 277.169 14.183C280.236 14.183 283.303 15.3681 285.638 17.7371L285.638 17.7372L384.304 117.869C386.564 120.163 387.808 123.214 387.808 126.457C387.808 129.7 386.564 132.753 384.305 135.046Z" fill="black" stroke="black"/>
<path d="M170.623 268.704L159.91 257.825C157.221 255.095 157.222 250.671 159.912 247.944C162.603 245.215 166.963 245.217 169.648 247.947L180.359 258.823L191.396 247.622L170.301 226.206C167.613 223.477 167.614 219.053 170.303 216.325C172.993 213.597 177.352 213.598 180.04 216.327L201.132 237.74L212.169 226.54L201.458 215.67C198.769 212.941 198.769 208.518 201.458 205.789C204.147 203.06 208.505 203.06 211.195 205.789L221.906 216.657L232.942 205.457L211.841 184.051C209.152 181.323 209.152 176.9 211.84 174.171C214.529 171.441 218.887 171.441 221.577 174.169L242.678 195.576L253.709 184.381L242.996 173.502C240.307 170.772 240.309 166.348 242.998 163.621C245.687 160.893 250.047 160.893 252.735 163.624L263.445 174.5L274.482 163.299L253.387 141.883C250.699 139.155 250.7 134.73 253.389 132.003C256.08 129.274 260.439 129.275 263.126 132.004L284.219 153.417L297.525 139.913C300.215 137.184 304.574 137.184 307.262 139.913C309.951 142.642 309.951 147.067 307.262 149.794L143.682 315.803C142.338 317.168 140.575 317.85 138.814 317.85C137.051 317.85 135.289 317.168 133.945 315.803C131.256 313.074 131.256 308.65 133.945 305.922L149.851 289.781L128.75 268.375C126.061 265.647 126.06 261.223 128.748 258.494C131.437 255.764 135.796 255.764 138.485 258.492L159.587 279.899L170.623 268.704Z" fill="black"/>
<path d="M81.9081 184.019C80.819 184.66 79.6317 184.966 78.4563 184.966C76.0833 184.966 73.7735 183.719 72.4965 181.486C70.5874 178.149 71.7047 173.873 74.9925 171.935C77.2527 170.603 88.4746 164.446 90.7527 163.147C94.0662 161.257 98.2654 162.451 100.128 165.817C101.99 169.181 100.812 173.441 97.4966 175.331C95.2757 176.598 84.1111 182.721 81.9081 184.019Z" fill="black"/>
<path d="M244.133 83.8681C247.502 82.0832 251.663 83.4086 253.422 86.8311C255.181 90.2518 253.874 94.4736 250.502 96.2585C233.517 105.252 216.263 114.082 199.576 122.622C174.734 135.335 149.047 148.481 123.76 162.417C122.715 162.993 121.59 163.266 120.48 163.266C118.037 163.266 115.671 161.943 114.423 159.612C112.608 156.221 113.847 151.979 117.188 150.137C142.66 136.101 168.443 122.907 193.376 110.144C210.021 101.626 227.231 92.8169 244.133 83.8681Z" fill="black"/>
</svg>
